<?xml version="1.0" encoding="UTF-8"?>
<svg width="544px" height="260px" viewBox="0 0 544 260" version="1.1" xmlns="http://www.w3.org/2000/svg" xmlns:xlink="http://www.w3.org/1999/xlink">
    <!-- Generator: Sketch 64 (93537) - https://sketch.com -->
    <title>rrr</title>
    <desc>Created with Sketch.</desc>
    <g id="rrr" stroke="none" stroke-width="1" fill="none" fill-rule="evenodd">
        <rect id="Rectangle" fill="#F2F4F6" x="186" y="0" width="174" height="261"></rect>
        <rect id="Rectangle-Copy" fill="#F2F4F6" x="0" y="0" width="174" height="261"></rect>
        <rect id="Rectangle-Copy-2" fill="#F2F4F6" x="371" y="-1" width="174" height="261"></rect>
        <g id="Group" transform="translate(34.000000, 126.000000)" fill-rule="nonzero">
            <path d="M13.4882812,23 L13.4882812,20.1875 L5.859375,20.1875 L5.859375,20.1171875 L9.984375,16.1445312 C11.8476562,14.2929688 13.2539062,12.7109375 13.2539062,10.6015625 C13.2539062,7.77734375 10.8046875,5.71484375 7.2421875,5.71484375 C3.55078125,5.71484375 0.99609375,7.9765625 0.99609375,11.1757812 L0.99609375,11.234375 L4.27734375,11.234375 L4.27734375,11.1757812 C4.27734375,9.6171875 5.484375,8.46875 7.125,8.46875 C8.6953125,8.46875 9.80859375,9.4765625 9.80859375,10.7421875 C9.80859375,11.9140625 9.28125,12.7695312 7.5703125,14.4804688 L1.1953125,20.6210938 L1.1953125,23 L13.4882812,23 Z M17.8125,23.140625 C18.8671875,23.140625 19.6992188,22.296875 19.6992188,21.2539062 C19.6992188,20.1992188 18.8671875,19.3671875 17.8125,19.3671875 C16.7578125,19.3671875 15.9257812,20.1992188 15.9257812,21.2539062 C15.9257812,22.296875 16.7578125,23.140625 17.8125,23.140625 Z M28.8398438,23.375 C32.71875,23.375 35.3671875,20.9375 35.3671875,17.3515625 C35.3671875,14.0585938 33.046875,11.6796875 29.8125,11.6796875 C28.0898438,11.6796875 26.7421875,12.3945312 26.0507812,13.53125 L25.9804688,13.53125 L26.3671875,8.90234375 L34.3476562,8.90234375 L34.3476562,6.08984375 L23.5898438,6.08984375 L22.7578125,15.8164062 L25.921875,15.8164062 C26.5078125,14.84375 27.609375,14.2578125 28.8867188,14.2578125 C30.7148438,14.2578125 31.9921875,15.5703125 31.9921875,17.4453125 C31.9921875,19.2851562 30.7148438,20.5742188 28.8632812,20.5742188 C27.2226562,20.5742188 25.9570312,19.5898438 25.7578125,18.1601562 L22.4882812,18.1601562 C22.59375,21.21875 25.2070312,23.375 28.8398438,23.375 Z M45.8554688,23 L45.8554688,11.5859375 L45.9492188,11.5859375 L50.5429688,22.8359375 L52.7695312,22.8359375 L57.3632812,11.5859375 L57.4570312,11.5859375 L57.4570312,23 L60.609375,23 L60.609375,6.08984375 L56.5078125,6.08984375 L51.703125,18.078125 L51.609375,18.078125 L46.8046875,6.08984375 L42.703125,6.08984375 L42.703125,23 L45.8554688,23 Z M64.9453125,8.69140625 C65.9648438,8.69140625 66.796875,7.91796875 66.796875,6.8984375 C66.796875,5.87890625 65.9648438,5.1171875 64.9453125,5.1171875 C63.9375,5.1171875 63.1054688,5.87890625 63.1054688,6.8984375 C63.1054688,7.91796875 63.9375,8.69140625 64.9453125,8.69140625 Z M66.65625,23 L66.65625,10.0976562 L63.234375,10.0976562 L63.234375,23 L66.65625,23 Z M72.5507812,23 L72.5507812,5.28125 L69.1289062,5.28125 L69.1289062,23 L72.5507812,23 Z M78.46875,23 L78.46875,5.28125 L75.046875,5.28125 L75.046875,23 L78.46875,23 Z M86.7539062,23.2226562 C90.6679688,23.2226562 93.1171875,20.7265625 93.1171875,16.5429688 C93.1171875,12.40625 90.6445312,9.875 86.7539062,9.875 C82.875,9.875 80.390625,12.4179688 80.390625,16.5429688 C80.390625,20.7148438 82.8398438,23.2226562 86.7539062,23.2226562 Z M86.7539062,20.5859375 C84.9492188,20.5859375 83.859375,19.109375 83.859375,16.5429688 C83.859375,14.0117188 84.9492188,12.5 86.7539062,12.5 C88.546875,12.5 89.6367188,14 89.6367188,16.5429688 C89.6367188,19.109375 88.5585938,20.5859375 86.7539062,20.5859375 Z M98.3671875,23 L98.3671875,15.640625 C98.3671875,13.9296875 99.3515625,12.7578125 100.992188,12.7578125 C102.609375,12.7578125 103.40625,13.7304688 103.40625,15.4414062 L103.40625,23 L106.828125,23 L106.828125,14.7265625 C106.828125,11.7148438 105.210938,9.91015625 102.351562,9.91015625 C100.371094,9.91015625 99.0585938,10.7773438 98.3203125,12.40625 L98.25,12.40625 L98.25,10.0976562 L94.9453125,10.0976562 L94.9453125,23 L98.3671875,23 Z" id="2.5Millon" fill="#22272E"></path>
            <path d="M9.20263672,52 L9.20263672,50.8925781 L4.44482422,50.8925781 L4.44482422,42.1357422 L3.21435547,42.1357422 L3.21435547,52 L9.20263672,52 Z M12.559082,52.0683594 C13.5913086,52.0683594 14.5141602,51.5419922 14.9311523,50.7216797 L14.9584961,50.7216797 L14.9584961,52 L16.0864258,52 L16.0864258,46.9414062 C16.0864258,45.4921875 14.965332,44.5625 13.222168,44.5625 C11.6772461,44.5625 10.4672852,45.5126953 10.4331055,46.7568359 L11.574707,46.7568359 C11.7182617,46.0595703 12.3540039,45.6220703 13.2084961,45.6220703 C14.2954102,45.6220703 14.8969727,46.1279297 14.8969727,47.0439453 L14.8969727,47.6591797 L12.8325195,47.7822266 C11.0415039,47.8916016 10.0708008,48.6367188 10.0708008,49.9013672 C10.0708008,51.2070312 11.0620117,52.0683594 12.559082,52.0683594 Z M12.8120117,51.0361328 C11.8823242,51.0361328 11.2875977,50.5917969 11.2875977,49.9082031 C11.2875977,49.1972656 11.8618164,48.7939453 12.9692383,48.7255859 L14.8969727,48.6025391 L14.8969727,49.1972656 C14.8969727,50.2568359 14.0151367,51.0361328 12.8120117,51.0361328 Z M18.2944336,54.6728516 C19.6000977,54.6728516 20.1879883,54.1601562 20.8168945,52.4511719 L23.7016602,44.6308594 L22.4506836,44.6308594 L20.3862305,50.7900391 L20.3588867,50.7900391 L18.2944336,44.6308594 L17.0297852,44.6308594 L19.7573242,52.0068359 L19.6137695,52.4443359 C19.3129883,53.3330078 18.9438477,53.6611328 18.2602539,53.6611328 C18.1030273,53.6611328 17.9116211,53.6474609 17.7749023,53.6201172 L17.7749023,54.625 C17.918457,54.6523438 18.144043,54.6728516 18.2944336,54.6728516 Z M27.6938477,52.0683594 C29.2661133,52.0683594 30.5444336,51.1591797 30.7495117,49.8945312 L29.5737305,49.8945312 C29.3618164,50.5849609 28.644043,51.0224609 27.7211914,51.0224609 C26.4086914,51.0224609 25.5473633,50.1132812 25.5473633,48.7119141 L25.5473633,48.6435547 L30.8383789,48.6435547 L30.8383789,48.1787109 C30.8383789,45.9501953 29.6079102,44.5625 27.6391602,44.5625 C25.6293945,44.5625 24.3168945,46.0595703 24.3168945,48.3427734 C24.3168945,50.6259766 25.6225586,52.0683594 27.6938477,52.0683594 Z M29.6010742,47.6933594 L25.5473633,47.6933594 C25.6293945,46.4492188 26.4633789,45.6083984 27.6186523,45.6083984 C28.7807617,45.6083984 29.5737305,46.4423828 29.6010742,47.6933594 Z M33.2788086,52 L33.2788086,47.4404297 C33.2788086,46.4013672 33.9077148,45.7041016 34.8647461,45.7041016 C35.1586914,45.7041016 35.418457,45.7382812 35.5141602,45.7724609 L35.5141602,44.6035156 C35.4116211,44.5830078 35.2338867,44.5625 35.0219727,44.5625 C34.1606445,44.5625 33.456543,45.0546875 33.237793,45.8271484 L33.2104492,45.8271484 L33.2104492,44.6308594 L32.0893555,44.6308594 L32.0893555,52 L33.2788086,52 Z M39.0483398,52.0683594 C40.7504883,52.0683594 41.9604492,51.1796875 41.9604492,49.921875 C41.9604492,48.8486328 41.4272461,48.3291016 39.9370117,47.953125 L38.815918,47.6728516 C37.9682617,47.4609375 37.5717773,47.1259766 37.5717773,46.6269531 C37.5717773,45.984375 38.1801758,45.5537109 39.0893555,45.5537109 C39.9916992,45.5537109 40.5932617,45.984375 40.668457,46.6748047 L41.8100586,46.6748047 C41.762207,45.4648438 40.6274414,44.5693359 39.1303711,44.5693359 C37.5307617,44.5693359 36.402832,45.4443359 36.402832,46.6884766 C36.402832,47.6728516 37.0317383,48.3222656 38.3237305,48.6572266 L39.6157227,48.9921875 C40.456543,49.2109375 40.7641602,49.484375 40.7641602,50.0039062 C40.7641602,50.6669922 40.1352539,51.0839844 39.1303711,51.0839844 C38.1254883,51.0839844 37.5170898,50.6806641 37.394043,49.9287109 L36.1977539,49.9287109 C36.3139648,51.2070312 37.4624023,52.0683594 39.0483398,52.0683594 Z M47.7915039,52 L47.7915039,47.4404297 C47.7915039,46.4013672 48.4204102,45.7041016 49.3774414,45.7041016 C49.6713867,45.7041016 49.9311523,45.7382812 50.0268555,45.7724609 L50.0268555,44.6035156 C49.9243164,44.5830078 49.746582,44.5625 49.534668,44.5625 C48.6733398,44.5625 47.9692383,45.0546875 47.7504883,45.8271484 L47.7231445,45.8271484 L47.7231445,44.6308594 L46.6020508,44.6308594 L46.6020508,52 L47.7915039,52 Z M54.0532227,52.0683594 C55.6254883,52.0683594 56.9038086,51.1591797 57.1088867,49.8945312 L55.9331055,49.8945312 C55.7211914,50.5849609 55.003418,51.0224609 54.0805664,51.0224609 C52.7680664,51.0224609 51.9067383,50.1132812 51.9067383,48.7119141 L51.9067383,48.6435547 L57.1977539,48.6435547 L57.1977539,48.1787109 C57.1977539,45.9501953 55.9672852,44.5625 53.9985352,44.5625 C51.9887695,44.5625 50.6762695,46.0595703 50.6762695,48.3427734 C50.6762695,50.6259766 51.9819336,52.0683594 54.0532227,52.0683594 Z M55.9604492,47.6933594 L51.9067383,47.6933594 C51.9887695,46.4492188 52.8227539,45.6083984 53.9780273,45.6083984 C55.1401367,45.6083984 55.9331055,46.4423828 55.9604492,47.6933594 Z M61.7368164,52 L64.4575195,44.6308594 L63.2202148,44.6308594 L61.1489258,50.7148438 L61.121582,50.7148438 L59.0571289,44.6308594 L57.8129883,44.6308594 L60.5336914,52 L61.7368164,52 Z M66.0981445,43.4414062 C66.5151367,43.4414062 66.8500977,43.0996094 66.8500977,42.6894531 C66.8500977,42.2724609 66.5151367,41.9375 66.0981445,41.9375 C65.6879883,41.9375 65.3461914,42.2724609 65.3461914,42.6894531 C65.3461914,43.0996094 65.6879883,43.4414062 66.0981445,43.4414062 Z M66.6928711,52 L66.6928711,44.6308594 L65.503418,44.6308594 L65.503418,52 L66.6928711,52 Z M71.3891602,52.0683594 C72.9614258,52.0683594 74.2397461,51.1591797 74.4448242,49.8945312 L73.269043,49.8945312 C73.0571289,50.5849609 72.3393555,51.0224609 71.4165039,51.0224609 C70.1040039,51.0224609 69.2426758,50.1132812 69.2426758,48.7119141 L69.2426758,48.6435547 L74.5336914,48.6435547 L74.5336914,48.1787109 C74.5336914,45.9501953 73.3032227,44.5625 71.3344727,44.5625 C69.324707,44.5625 68.012207,46.0595703 68.012207,48.3427734 C68.012207,50.6259766 69.3178711,52.0683594 71.3891602,52.0683594 Z M73.2963867,47.6933594 L69.2426758,47.6933594 C69.324707,46.4492188 70.1586914,45.6083984 71.3139648,45.6083984 C72.4760742,45.6083984 73.269043,46.4423828 73.2963867,47.6933594 Z M78.4506836,52 L80.1323242,46.2714844 L80.159668,46.2714844 L81.8413086,52 L83.0444336,52 L85.1088867,44.6308594 L83.9331055,44.6308594 L82.4360352,50.6533203 L82.4086914,50.6533203 L80.7202148,44.6308594 L79.5717773,44.6308594 L77.8833008,50.6533203 L77.855957,50.6533203 L76.3588867,44.6308594 L75.1831055,44.6308594 L77.2475586,52 L78.4506836,52 Z M89.1352539,52.0683594 C90.7075195,52.0683594 91.9858398,51.1591797 92.190918,49.8945312 L91.0151367,49.8945312 C90.8032227,50.5849609 90.0854492,51.0224609 89.1625977,51.0224609 C87.8500977,51.0224609 86.9887695,50.1132812 86.9887695,48.7119141 L86.9887695,48.6435547 L92.2797852,48.6435547 L92.2797852,48.1787109 C92.2797852,45.9501953 91.0493164,44.5625 89.0805664,44.5625 C87.0708008,44.5625 85.7583008,46.0595703 85.7583008,48.3427734 C85.7583008,50.6259766 87.0639648,52.0683594 89.1352539,52.0683594 Z M91.0424805,47.6933594 L86.9887695,47.6933594 C87.0708008,46.4492188 87.9047852,45.6083984 89.0600586,45.6083984 C90.222168,45.6083984 91.0151367,46.4423828 91.0424805,47.6933594 Z M96.3266602,52.0683594 C97.3930664,52.0683594 98.2338867,51.6035156 98.7124023,50.7558594 L98.7329102,50.7558594 L98.7329102,52 L99.8676758,52 L99.8676758,41.7050781 L98.6782227,41.7050781 L98.6782227,45.8271484 L98.6508789,45.8271484 C98.199707,45.0205078 97.3520508,44.5625 96.2993164,44.5625 C94.4672852,44.5625 93.168457,46.0664062 93.168457,48.3154297 C93.168457,50.5644531 94.4741211,52.0683594 96.3266602,52.0683594 Z M96.5385742,51.0087891 C95.246582,51.0087891 94.3852539,49.9492188 94.3852539,48.3154297 C94.3852539,46.6884766 95.246582,45.6220703 96.5385742,45.6220703 C97.8168945,45.6220703 98.6850586,46.7158203 98.6850586,48.3154297 C98.6850586,49.921875 97.8168945,51.0087891 96.5385742,51.0087891 Z" id="Layersreviewed" fill="#627386"></path>
        </g>
        <g id="Group-Copy" transform="translate(210.000000, 125.000000)" fill-rule="nonzero">
            <path d="M41.6210938,23 L41.6210938,19.9882812 L43.8242188,19.9882812 L43.8242188,17.1523438 L41.6210938,17.1523438 L41.6210938,6.08984375 L36.6289062,6.08984375 C33.1601562,11.1992188 31.3203125,14.1640625 29.84375,16.9765625 L29.84375,19.9882812 L38.2578125,19.9882812 L38.2578125,23 L41.6210938,23 Z M38.328125,17.2578125 L32.9492188,17.2578125 L32.9492188,17.1640625 C34.3203125,14.515625 35.796875,12.2070312 38.2578125,8.59765625 L38.328125,8.59765625 L38.328125,17.2578125 Z M51.9570312,23.375 C55.859375,23.375 58.6132812,21.359375 58.6132812,18.3242188 C58.6132812,15.9804688 56.984375,14.4570312 54.4648438,14.2460938 L54.4648438,14.1757812 C56.5390625,13.8007812 57.9570312,12.3007812 57.9570312,10.2265625 C57.9570312,7.51953125 55.5546875,5.71484375 52.0390625,5.71484375 C48.3710938,5.71484375 45.9335938,7.75390625 45.8046875,10.8828125 L49.0625,10.8828125 C49.15625,9.40625 50.2460938,8.43359375 51.8867188,8.43359375 C53.6445312,8.43359375 54.6171875,9.3359375 54.6171875,10.7070312 C54.6171875,12.1015625 53.5273438,13.0625 51.9101562,13.0625 L49.859375,13.0625 L49.859375,15.6171875 L51.9453125,15.6171875 C53.8554688,15.6171875 55.015625,16.5546875 55.015625,18.1015625 C55.015625,19.53125 53.7734375,20.5273438 52.0039062,20.5273438 C50.140625,20.5273438 48.96875,19.5898438 48.8632812,18.1601562 L45.4765625,18.1601562 C45.640625,21.2773438 48.1367188,23.375 51.9570312,23.375 Z M63.0078125,23.140625 C64.0625,23.140625 64.8945312,22.296875 64.8945312,21.2539062 C64.8945312,20.1992188 64.0625,19.3671875 63.0078125,19.3671875 C61.953125,19.3671875 61.1210938,20.1992188 61.1210938,21.2539062 C61.1210938,22.296875 61.953125,23.140625 63.0078125,23.140625 Z M75.265625,23 L75.265625,6.08984375 L71.75,6.08984375 L67.3789062,9.125 L67.3789062,12.3125 L71.6914062,9.3359375 L71.7617188,9.3359375 L71.7617188,23 L75.265625,23 Z M82.2382812,14.5390625 C84.59375,14.5390625 86.09375,12.828125 86.09375,10.1445312 C86.09375,7.47265625 84.6171875,5.796875 82.2382812,5.796875 C79.8710938,5.796875 78.3828125,7.47265625 78.3828125,10.1445312 C78.3828125,12.828125 79.8828125,14.5390625 82.2382812,14.5390625 Z M82.8945312,23 L95.234375,6.08984375 L92.4101562,6.08984375 L80.0585938,23 L82.8945312,23 Z M82.2382812,12.4882812 C81.4765625,12.4882812 81.0078125,11.5859375 81.0078125,10.15625 C81.0078125,8.71484375 81.4765625,7.84765625 82.2382812,7.84765625 C83.0234375,7.84765625 83.46875,8.69140625 83.46875,10.1445312 C83.46875,11.5976562 83.0117188,12.4882812 82.2382812,12.4882812 Z M93.0429688,23.2460938 C95.3984375,23.2460938 96.8984375,21.5351562 96.8984375,18.8515625 C96.8984375,16.1796875 95.421875,14.5039062 93.0429688,14.5039062 C90.6757812,14.5039062 89.1875,16.1796875 89.1875,18.8515625 C89.1875,21.5351562 90.6875,23.2460938 93.0429688,23.2460938 Z M93.0429688,21.1953125 C92.28125,21.1953125 91.8125,20.2929688 91.8125,18.8632812 C91.8125,17.421875 92.28125,16.5546875 93.0429688,16.5546875 C93.828125,16.5546875 94.2734375,17.3984375 94.2734375,18.8515625 C94.2734375,20.3046875 93.8164062,21.1953125 93.0429688,21.1953125 Z" id="43.1%" fill="#22272E"></path>
            <path d="M2.44042969,52 L2.44042969,47.5087891 L7.85449219,47.5087891 L7.85449219,52 L9.08496094,52 L9.08496094,42.1357422 L7.85449219,42.1357422 L7.85449219,46.4013672 L2.44042969,46.4013672 L2.44042969,42.1357422 L1.20996094,42.1357422 L1.20996094,52 L2.44042969,52 Z M11.5117188,43.4414062 C11.9287109,43.4414062 12.2636719,43.0996094 12.2636719,42.6894531 C12.2636719,42.2724609 11.9287109,41.9375 11.5117188,41.9375 C11.1015625,41.9375 10.7597656,42.2724609 10.7597656,42.6894531 C10.7597656,43.0996094 11.1015625,43.4414062 11.5117188,43.4414062 Z M12.1064453,52 L12.1064453,44.6308594 L10.9169922,44.6308594 L10.9169922,52 L12.1064453,52 Z M16.8095703,54.7753906 C18.8330078,54.7753906 20.125,53.6064453 20.125,51.8496094 L20.125,44.6308594 L18.9902344,44.6308594 L18.9902344,45.8271484 L18.9697266,45.8271484 C18.4775391,45.0205078 17.609375,44.5625 16.5703125,44.5625 C14.6767578,44.5625 13.4257812,46.0390625 13.4257812,48.2880859 C13.4257812,50.5166016 14.6767578,52 16.5429688,52 C17.5751953,52 18.4433594,51.5351562 18.9082031,50.7353516 L18.9355469,50.7353516 L18.9355469,51.890625 C18.9355469,53.0048828 18.1494141,53.75 16.8642578,53.75 C15.9345703,53.75 15.1894531,53.2988281 14.9501953,52.6152344 L13.7197266,52.6152344 C13.9248047,53.8662109 15.2099609,54.7753906 16.8095703,54.7753906 Z M16.7685547,50.9404297 C15.4833984,50.9404297 14.6425781,49.8945312 14.6425781,48.2880859 C14.6425781,46.6748047 15.4833984,45.6220703 16.7685547,45.6220703 C18.0605469,45.6220703 18.9355469,46.7021484 18.9355469,48.2880859 C18.9355469,49.8671875 18.0605469,50.9404297 16.7685547,50.9404297 Z M22.9960938,52 L22.9960938,47.7617188 C22.9960938,46.4697266 23.7617188,45.6220703 25.0058594,45.6220703 C26.1748047,45.6220703 26.7695312,46.3330078 26.7695312,47.5087891 L26.7695312,52 L27.9589844,52 L27.9589844,47.296875 C27.9589844,45.65625 26.9746094,44.5625 25.3613281,44.5625 C24.2333984,44.5625 23.4814453,44.9931641 23.0234375,45.8271484 L22.9960938,45.8271484 L22.9960938,41.7050781 L21.8066406,41.7050781 L21.8066406,52 L22.9960938,52 Z M32.5527344,52.0683594 C34.125,52.0683594 35.4033203,51.1591797 35.6083984,49.8945312 L34.4326172,49.8945312 C34.2207031,50.5849609 33.5029297,51.0224609 32.5800781,51.0224609 C31.2675781,51.0224609 30.40625,50.1132812 30.40625,48.7119141 L30.40625,48.6435547 L35.6972656,48.6435547 L35.6972656,48.1787109 C35.6972656,45.9501953 34.4667969,44.5625 32.4980469,44.5625 C30.4882812,44.5625 29.1757812,46.0595703 29.1757812,48.3427734 C29.1757812,50.6259766 30.4814453,52.0683594 32.5527344,52.0683594 Z M34.4599609,47.6933594 L30.40625,47.6933594 C30.4882812,46.4492188 31.3222656,45.6083984 32.4775391,45.6083984 C33.6396484,45.6083984 34.4326172,46.4423828 34.4599609,47.6933594 Z M39.4707031,52.0683594 C41.1728516,52.0683594 42.3828125,51.1796875 42.3828125,49.921875 C42.3828125,48.8486328 41.8496094,48.3291016 40.359375,47.953125 L39.2382812,47.6728516 C38.390625,47.4609375 37.9941406,47.1259766 37.9941406,46.6269531 C37.9941406,45.984375 38.6025391,45.5537109 39.5117188,45.5537109 C40.4140625,45.5537109 41.015625,45.984375 41.0908203,46.6748047 L42.2324219,46.6748047 C42.1845703,45.4648438 41.0498047,44.5693359 39.5527344,44.5693359 C37.953125,44.5693359 36.8251953,45.4443359 36.8251953,46.6884766 C36.8251953,47.6728516 37.4541016,48.3222656 38.7460938,48.6572266 L40.0380859,48.9921875 C40.8789062,49.2109375 41.1865234,49.484375 41.1865234,50.0039062 C41.1865234,50.6669922 40.5576172,51.0839844 39.5527344,51.0839844 C38.5478516,51.0839844 37.9394531,50.6806641 37.8164062,49.9287109 L36.6201172,49.9287109 C36.7363281,51.2070312 37.8847656,52.0683594 39.4707031,52.0683594 Z M45.9169922,52.0546875 C46.1972656,52.0546875 46.5390625,52.0273438 46.6826172,51.9931641 L46.6826172,50.9882812 C46.6005859,51.0019531 46.3134766,51.0224609 46.1699219,51.0224609 C45.5410156,51.0224609 45.2539062,50.7148438 45.2539062,50.0380859 L45.2539062,45.6152344 L46.6894531,45.6152344 L46.6894531,44.6308594 L45.2539062,44.6308594 L45.2539062,42.9697266 L44.0644531,42.9697266 L44.0644531,44.6308594 L43.0390625,44.6308594 L43.0390625,45.6152344 L44.0644531,45.6152344 L44.0644531,50.0859375 C44.0644531,51.5009766 44.5839844,52.0546875 45.9169922,52.0546875 Z M53.8740234,52.0683594 C55.0019531,52.0683594 55.7607422,51.6308594 56.21875,50.7832031 L56.2460938,50.7832031 L56.2460938,52 L57.3671875,52 L57.3671875,44.6308594 L56.1777344,44.6308594 L56.1777344,48.9101562 C56.1777344,50.1748047 55.4462891,51.0087891 54.2363281,51.0087891 C53.0810547,51.0087891 52.5136719,50.359375 52.5136719,49.1494141 L52.5136719,44.6308594 L51.3242188,44.6308594 L51.3242188,49.3544922 C51.3242188,51.0292969 52.2607422,52.0683594 53.8740234,52.0683594 Z M61.5029297,52.0683594 C63.2050781,52.0683594 64.4150391,51.1796875 64.4150391,49.921875 C64.4150391,48.8486328 63.8818359,48.3291016 62.3916016,47.953125 L61.2705078,47.6728516 C60.4228516,47.4609375 60.0263672,47.1259766 60.0263672,46.6269531 C60.0263672,45.984375 60.6347656,45.5537109 61.5439453,45.5537109 C62.4462891,45.5537109 63.0478516,45.984375 63.1230469,46.6748047 L64.2646484,46.6748047 C64.2167969,45.4648438 63.0820312,44.5693359 61.5849609,44.5693359 C59.9853516,44.5693359 58.8574219,45.4443359 58.8574219,46.6884766 C58.8574219,47.6728516 59.4863281,48.3222656 60.7783203,48.6572266 L62.0703125,48.9921875 C62.9111328,49.2109375 63.21875,49.484375 63.21875,50.0039062 C63.21875,50.6669922 62.5898438,51.0839844 61.5849609,51.0839844 C60.5800781,51.0839844 59.9716797,50.6806641 59.8486328,49.9287109 L58.6523438,49.9287109 C58.7685547,51.2070312 59.9169922,52.0683594 61.5029297,52.0683594 Z M67.8603516,52.0683594 C68.8925781,52.0683594 69.8154297,51.5419922 70.2324219,50.7216797 L70.2597656,50.7216797 L70.2597656,52 L71.3876953,52 L71.3876953,46.9414062 C71.3876953,45.4921875 70.2666016,44.5625 68.5234375,44.5625 C66.9785156,44.5625 65.7685547,45.5126953 65.734375,46.7568359 L66.8759766,46.7568359 C67.0195312,46.0595703 67.6552734,45.6220703 68.5097656,45.6220703 C69.5966797,45.6220703 70.1982422,46.1279297 70.1982422,47.0439453 L70.1982422,47.6591797 L68.1337891,47.7822266 C66.3427734,47.8916016 65.3720703,48.6367188 65.3720703,49.9013672 C65.3720703,51.2070312 66.3632812,52.0683594 67.8603516,52.0683594 Z M68.1132812,51.0361328 C67.1835938,51.0361328 66.5888672,50.5917969 66.5888672,49.9082031 C66.5888672,49.1972656 67.1630859,48.7939453 68.2705078,48.7255859 L70.1982422,48.6025391 L70.1982422,49.1972656 C70.1982422,50.2568359 69.3164062,51.0361328 68.1132812,51.0361328 Z M75.9882812,54.7753906 C78.0117188,54.7753906 79.3037109,53.6064453 79.3037109,51.8496094 L79.3037109,44.6308594 L78.1689453,44.6308594 L78.1689453,45.8271484 L78.1484375,45.8271484 C77.65625,45.0205078 76.7880859,44.5625 75.7490234,44.5625 C73.8554688,44.5625 72.6044922,46.0390625 72.6044922,48.2880859 C72.6044922,50.5166016 73.8554688,52 75.7216797,52 C76.7539062,52 77.6220703,51.5351562 78.0869141,50.7353516 L78.1142578,50.7353516 L78.1142578,51.890625 C78.1142578,53.0048828 77.328125,53.75 76.0429688,53.75 C75.1132812,53.75 74.3681641,53.2988281 74.1289062,52.6152344 L72.8984375,52.6152344 C73.1035156,53.8662109 74.3886719,54.7753906 75.9882812,54.7753906 Z M75.9472656,50.9404297 C74.6621094,50.9404297 73.8212891,49.8945312 73.8212891,48.2880859 C73.8212891,46.6748047 74.6621094,45.6220703 75.9472656,45.6220703 C77.2392578,45.6220703 78.1142578,46.7021484 78.1142578,48.2880859 C78.1142578,49.8671875 77.2392578,50.9404297 75.9472656,50.9404297 Z M83.9316406,52.0683594 C85.5039062,52.0683594 86.7822266,51.1591797 86.9873047,49.8945312 L85.8115234,49.8945312 C85.5996094,50.5849609 84.8818359,51.0224609 83.9589844,51.0224609 C82.6464844,51.0224609 81.7851562,50.1132812 81.7851562,48.7119141 L81.7851562,48.6435547 L87.0761719,48.6435547 L87.0761719,48.1787109 C87.0761719,45.9501953 85.8457031,44.5625 83.8769531,44.5625 C81.8671875,44.5625 80.5546875,46.0595703 80.5546875,48.3427734 C80.5546875,50.6259766 81.8603516,52.0683594 83.9316406,52.0683594 Z M85.8388672,47.6933594 L81.7851562,47.6933594 C81.8671875,46.4492188 82.7011719,45.6083984 83.8564453,45.6083984 C85.0185547,45.6083984 85.8115234,46.4423828 85.8388672,47.6933594 Z M94.7119141,52.0683594 C96.7832031,52.0683594 98.109375,50.5986328 98.109375,48.3154297 C98.109375,46.0253906 96.7832031,44.5625 94.7119141,44.5625 C92.640625,44.5625 91.3144531,46.0253906 91.3144531,48.3154297 C91.3144531,50.5986328 92.640625,52.0683594 94.7119141,52.0683594 Z M94.7119141,51.0087891 C93.3447266,51.0087891 92.5244141,50.0039062 92.5244141,48.3154297 C92.5244141,46.6269531 93.3378906,45.6220703 94.7119141,45.6220703 C96.0859375,45.6220703 96.8994141,46.6201172 96.8994141,48.3154297 C96.8994141,50.0039062 96.0859375,51.0087891 94.7119141,51.0087891 Z M100.939453,52 L100.939453,45.6152344 L102.375,45.6152344 L102.375,44.6308594 L100.939453,44.6308594 L100.939453,43.9472656 C100.946289,43.2568359 101.206055,42.9697266 101.821289,42.9697266 C102.005859,42.9697266 102.217773,42.9902344 102.375,43.0244141 L102.375,42.0400391 C102.149414,41.9990234 101.944336,41.9785156 101.711914,41.9785156 C100.344727,41.9785156 99.75,42.5869141 99.75,43.9472656 L99.75,44.6308594 L98.7246094,44.6308594 L98.7246094,45.6152344 L99.75,45.6152344 L99.75,52 L100.939453,52 Z M109.251953,52.0546875 C109.532227,52.0546875 109.874023,52.0273438 110.017578,51.9931641 L110.017578,50.9882812 C109.935547,51.0019531 109.648438,51.0224609 109.504883,51.0224609 C108.875977,51.0224609 108.588867,50.7148438 108.588867,50.0380859 L108.588867,45.6152344 L110.024414,45.6152344 L110.024414,44.6308594 L108.588867,44.6308594 L108.588867,42.9697266 L107.399414,42.9697266 L107.399414,44.6308594 L106.374023,44.6308594 L106.374023,45.6152344 L107.399414,45.6152344 L107.399414,50.0859375 C107.399414,51.5009766 107.918945,52.0546875 109.251953,52.0546875 Z M112.601562,52 L112.601562,47.7617188 C112.601562,46.4697266 113.367188,45.6220703 114.611328,45.6220703 C115.780273,45.6220703 116.375,46.3330078 116.375,47.5087891 L116.375,52 L117.564453,52 L117.564453,47.296875 C117.564453,45.65625 116.580078,44.5625 114.966797,44.5625 C113.838867,44.5625 113.086914,44.9931641 112.628906,45.8271484 L112.601562,45.8271484 L112.601562,41.7050781 L111.412109,41.7050781 L111.412109,52 L112.601562,52 Z M122.158203,52.0683594 C123.730469,52.0683594 125.008789,51.1591797 125.213867,49.8945312 L124.038086,49.8945312 C123.826172,50.5849609 123.108398,51.0224609 122.185547,51.0224609 C120.873047,51.0224609 120.011719,50.1132812 120.011719,48.7119141 L120.011719,48.6435547 L125.302734,48.6435547 L125.302734,48.1787109 C125.302734,45.9501953 124.072266,44.5625 122.103516,44.5625 C120.09375,44.5625 118.78125,46.0595703 118.78125,48.3427734 C118.78125,50.6259766 120.086914,52.0683594 122.158203,52.0683594 Z M124.06543,47.6933594 L120.011719,47.6933594 C120.09375,46.4492188 120.927734,45.6083984 122.083008,45.6083984 C123.245117,45.6083984 124.038086,46.4423828 124.06543,47.6933594 Z M11.6074219,72 L11.6074219,61.7050781 L10.4179688,61.7050781 L10.4179688,72 L11.6074219,72 Z M13.9521484,63.4414062 C14.3691406,63.4414062 14.7041016,63.0996094 14.7041016,62.6894531 C14.7041016,62.2724609 14.3691406,61.9375 13.9521484,61.9375 C13.5419922,61.9375 13.2001953,62.2724609 13.2001953,62.6894531 C13.2001953,63.0996094 13.5419922,63.4414062 13.9521484,63.4414062 Z M14.546875,72 L14.546875,64.6308594 L13.3574219,64.6308594 L13.3574219,72 L14.546875,72 Z M19.8515625,72.0683594 C21.7314453,72.0683594 22.9960938,70.5712891 22.9960938,68.3154297 C22.9960938,66.0664062 21.7314453,64.5625 19.8789062,64.5625 C18.8330078,64.5625 17.9785156,65.0205078 17.5136719,65.8271484 L17.4863281,65.8271484 L17.4863281,61.7050781 L16.296875,61.7050781 L16.296875,72 L17.4248047,72 L17.4248047,70.7558594 L17.4521484,70.7558594 C17.9306641,71.6035156 18.7783203,72.0683594 19.8515625,72.0683594 Z M19.6396484,71.0087891 C18.3544922,71.0087891 17.4794922,69.9150391 17.4794922,68.3154297 C17.4794922,66.7226562 18.3544922,65.6220703 19.6396484,65.6220703 C20.9316406,65.6220703 21.7792969,66.6816406 21.7792969,68.3154297 C21.7792969,69.9560547 20.9316406,71.0087891 19.6396484,71.0087891 Z M25.4365234,72 L25.4365234,67.4404297 C25.4365234,66.4013672 26.0654297,65.7041016 27.0224609,65.7041016 C27.3164062,65.7041016 27.5761719,65.7382812 27.671875,65.7724609 L27.671875,64.6035156 C27.5693359,64.5830078 27.3916016,64.5625 27.1796875,64.5625 C26.3183594,64.5625 25.6142578,65.0546875 25.3955078,65.8271484 L25.3681641,65.8271484 L25.3681641,64.6308594 L24.2470703,64.6308594 L24.2470703,72 L25.4365234,72 Z M30.8369141,72.0683594 C31.8691406,72.0683594 32.7919922,71.5419922 33.2089844,70.7216797 L33.2363281,70.7216797 L33.2363281,72 L34.3642578,72 L34.3642578,66.9414062 C34.3642578,65.4921875 33.2431641,64.5625 31.5,64.5625 C29.9550781,64.5625 28.7451172,65.5126953 28.7109375,66.7568359 L29.8525391,66.7568359 C29.9960938,66.0595703 30.6318359,65.6220703 31.4863281,65.6220703 C32.5732422,65.6220703 33.1748047,66.1279297 33.1748047,67.0439453 L33.1748047,67.6591797 L31.1103516,67.7822266 C29.3193359,67.8916016 28.3486328,68.6367188 28.3486328,69.9013672 C28.3486328,71.2070312 29.3398438,72.0683594 30.8369141,72.0683594 Z M31.0898438,71.0361328 C30.1601562,71.0361328 29.5654297,70.5917969 29.5654297,69.9082031 C29.5654297,69.1972656 30.1396484,68.7939453 31.2470703,68.7255859 L33.1748047,68.6025391 L33.1748047,69.1972656 C33.1748047,70.2568359 32.2929688,71.0361328 31.0898438,71.0361328 Z M37.1328125,72 L37.1328125,67.4404297 C37.1328125,66.4013672 37.7617188,65.7041016 38.71875,65.7041016 C39.0126953,65.7041016 39.2724609,65.7382812 39.3681641,65.7724609 L39.3681641,64.6035156 C39.265625,64.5830078 39.0878906,64.5625 38.8759766,64.5625 C38.0146484,64.5625 37.3105469,65.0546875 37.0917969,65.8271484 L37.0644531,65.8271484 L37.0644531,64.6308594 L35.9433594,64.6308594 L35.9433594,72 L37.1328125,72 Z M41.0087891,74.6728516 C42.3144531,74.6728516 42.9023438,74.1601562 43.53125,72.4511719 L46.4160156,64.6308594 L45.1650391,64.6308594 L43.1005859,70.7900391 L43.0732422,70.7900391 L41.0087891,64.6308594 L39.7441406,64.6308594 L42.4716797,72.0068359 L42.328125,72.4443359 C42.0273438,73.3330078 41.6582031,73.6611328 40.9746094,73.6611328 C40.8173828,73.6611328 40.6259766,73.6474609 40.4892578,73.6201172 L40.4892578,74.625 C40.6328125,74.6523438 40.8583984,74.6728516 41.0087891,74.6728516 Z M51.40625,63.4414062 C51.8232422,63.4414062 52.1582031,63.0996094 52.1582031,62.6894531 C52.1582031,62.2724609 51.8232422,61.9375 51.40625,61.9375 C50.9960938,61.9375 50.6542969,62.2724609 50.6542969,62.6894531 C50.6542969,63.0996094 50.9960938,63.4414062 51.40625,63.4414062 Z M52.0009766,72 L52.0009766,64.6308594 L50.8115234,64.6308594 L50.8115234,72 L52.0009766,72 Z M54.8720703,72 L54.8720703,67.7207031 C54.8720703,66.4560547 55.6035156,65.6220703 56.8134766,65.6220703 C57.9755859,65.6220703 58.5361328,66.2783203 58.5361328,67.4814453 L58.5361328,72 L59.7255859,72 L59.7255859,67.2763672 C59.7255859,65.6015625 58.7890625,64.5625 57.1689453,64.5625 C56.0273438,64.5625 55.2958984,64.9931641 54.8310547,65.8271484 L54.8037109,65.8271484 L54.8037109,64.6308594 L53.6826172,64.6308594 L53.6826172,72 L54.8720703,72 Z M66.8076172,72.0683594 C67.8398438,72.0683594 68.7626953,71.5419922 69.1796875,70.7216797 L69.2070312,70.7216797 L69.2070312,72 L70.3349609,72 L70.3349609,66.9414062 C70.3349609,65.4921875 69.2138672,64.5625 67.4707031,64.5625 C65.9257812,64.5625 64.7158203,65.5126953 64.6816406,66.7568359 L65.8232422,66.7568359 C65.9667969,66.0595703 66.6025391,65.6220703 67.4570312,65.6220703 C68.5439453,65.6220703 69.1455078,66.1279297 69.1455078,67.0439453 L69.1455078,67.6591797 L67.0810547,67.7822266 C65.2900391,67.8916016 64.3193359,68.6367188 64.3193359,69.9013672 C64.3193359,71.2070312 65.3105469,72.0683594 66.8076172,72.0683594 Z M67.0605469,71.0361328 C66.1308594,71.0361328 65.5361328,70.5917969 65.5361328,69.9082031 C65.5361328,69.1972656 66.1103516,68.7939453 67.2177734,68.7255859 L69.1455078,68.6025391 L69.1455078,69.1972656 C69.1455078,70.2568359 68.2636719,71.0361328 67.0605469,71.0361328 Z M76.453125,74.4609375 L76.453125,70.8037109 L76.4804688,70.8037109 C76.9453125,71.6103516 77.7861328,72.0683594 78.8320312,72.0683594 C80.6914062,72.0683594 81.9628906,70.5644531 81.9628906,68.3154297 C81.9628906,66.0664062 80.6845703,64.5625 78.8046875,64.5625 C77.7861328,64.5625 76.8496094,65.0615234 76.4189453,65.8271484 L76.3916016,65.8271484 L76.3916016,64.6308594 L75.2636719,64.6308594 L75.2636719,74.4609375 L76.453125,74.4609375 Z M78.5859375,71.0087891 C77.3144531,71.0087891 76.4462891,69.921875 76.4462891,68.3154297 C76.4462891,66.7158203 77.3144531,65.6220703 78.5859375,65.6220703 C79.8847656,65.6220703 80.7460938,66.6884766 80.7460938,68.3154297 C80.7460938,69.9492188 79.8847656,71.0087891 78.5859375,71.0087891 Z M84.4033203,72 L84.4033203,67.4404297 C84.4033203,66.4013672 85.0322266,65.7041016 85.9892578,65.7041016 C86.2832031,65.7041016 86.5429688,65.7382812 86.6386719,65.7724609 L86.6386719,64.6035156 C86.5361328,64.5830078 86.3583984,64.5625 86.1464844,64.5625 C85.2851562,64.5625 84.5810547,65.0546875 84.3623047,65.8271484 L84.3349609,65.8271484 L84.3349609,64.6308594 L83.2138672,64.6308594 L83.2138672,72 L84.4033203,72 Z M90.6855469,72.0683594 C92.7568359,72.0683594 94.0830078,70.5986328 94.0830078,68.3154297 C94.0830078,66.0253906 92.7568359,64.5625 90.6855469,64.5625 C88.6142578,64.5625 87.2880859,66.0253906 87.2880859,68.3154297 C87.2880859,70.5986328 88.6142578,72.0683594 90.6855469,72.0683594 Z M90.6855469,71.0087891 C89.3183594,71.0087891 88.4980469,70.0039062 88.4980469,68.3154297 C88.4980469,66.6269531 89.3115234,65.6220703 90.6855469,65.6220703 C92.0595703,65.6220703 92.8730469,66.6201172 92.8730469,68.3154297 C92.8730469,70.0039062 92.0595703,71.0087891 90.6855469,71.0087891 Z M95.9970703,63.4414062 C96.4140625,63.4414062 96.7490234,63.0996094 96.7490234,62.6894531 C96.7490234,62.2724609 96.4140625,61.9375 95.9970703,61.9375 C95.5869141,61.9375 95.2451172,62.2724609 95.2451172,62.6894531 C95.2451172,63.0996094 95.5869141,63.4414062 95.9970703,63.4414062 Z M94.3291016,74.5292969 C95.8945312,74.5292969 96.5917969,73.859375 96.5917969,72.3623047 L96.5917969,64.6308594 L95.4023438,64.6308594 L95.4023438,72.3828125 C95.4023438,73.2167969 95.1083984,73.5244141 94.3017578,73.5244141 L94.1171875,73.5244141 L94.1171875,73.5244141 L94.1171875,74.5292969 L94.3291016,74.5292969 L94.3291016,74.5292969 Z M101.288086,72.0683594 C102.860352,72.0683594 104.138672,71.1591797 104.34375,69.8945312 L103.167969,69.8945312 C102.956055,70.5849609 102.238281,71.0224609 101.31543,71.0224609 C100.00293,71.0224609 99.1416016,70.1132812 99.1416016,68.7119141 L99.1416016,68.6435547 L104.432617,68.6435547 L104.432617,68.1787109 C104.432617,65.9501953 103.202148,64.5625 101.233398,64.5625 C99.2236328,64.5625 97.9111328,66.0595703 97.9111328,68.3427734 C97.9111328,70.6259766 99.2167969,72.0683594 101.288086,72.0683594 Z M103.195312,67.6933594 L99.1416016,67.6933594 C99.2236328,66.4492188 100.057617,65.6083984 101.212891,65.6083984 C102.375,65.6083984 103.167969,66.4423828 103.195312,67.6933594 Z M108.698242,72.0683594 C110.379883,72.0683594 111.589844,71.0771484 111.788086,69.6416016 L110.619141,69.6416016 C110.414062,70.5302734 109.730469,71.0087891 108.705078,71.0087891 C107.419922,71.0087891 106.53125,69.9902344 106.53125,68.3154297 C106.53125,66.6884766 107.40625,65.6220703 108.691406,65.6220703 C109.798828,65.6220703 110.455078,66.2441406 110.605469,67.0302734 L111.774414,67.0302734 C111.624023,65.7382812 110.509766,64.5625 108.68457,64.5625 C106.667969,64.5625 105.321289,66.0527344 105.321289,68.3154297 C105.321289,70.6328125 106.674805,72.0683594 108.698242,72.0683594 Z M115.171875,72.0546875 C115.452148,72.0546875 115.793945,72.0273438 115.9375,71.9931641 L115.9375,70.9882812 C115.855469,71.0019531 115.568359,71.0224609 115.424805,71.0224609 C114.795898,71.0224609 114.508789,70.7148438 114.508789,70.0380859 L114.508789,65.6152344 L115.944336,65.6152344 L115.944336,64.6308594 L114.508789,64.6308594 L114.508789,62.9697266 L113.319336,62.9697266 L113.319336,64.6308594 L112.293945,64.6308594 L112.293945,65.6152344 L113.319336,65.6152344 L113.319336,70.0859375 C113.319336,71.5009766 113.838867,72.0546875 115.171875,72.0546875 Z" id="Highestusageofthelibraryinaproject" fill="#627386"></path>
        </g>
        <g id="Group-Copy-2" transform="translate(396.000000, 126.000000)" fill-rule="nonzero">
            <path d="M33.6992188,23.375 C37.578125,23.375 40.2265625,20.9375 40.2265625,17.3515625 C40.2265625,14.0585938 37.90625,11.6796875 34.671875,11.6796875 C32.9492188,11.6796875 31.6015625,12.3945312 30.9101562,13.53125 L30.8398438,13.53125 L31.2265625,8.90234375 L39.2070312,8.90234375 L39.2070312,6.08984375 L28.4492188,6.08984375 L27.6171875,15.8164062 L30.78125,15.8164062 C31.3671875,14.84375 32.46875,14.2578125 33.7460938,14.2578125 C35.5742188,14.2578125 36.8515625,15.5703125 36.8515625,17.4453125 C36.8515625,19.2851562 35.5742188,20.5742188 33.7226562,20.5742188 C32.0820312,20.5742188 30.8164062,19.5898438 30.6171875,18.1601562 L27.3476562,18.1601562 C27.453125,21.21875 30.0664062,23.375 33.6992188,23.375 Z M44.3398438,23.140625 C45.3945312,23.140625 46.2265625,22.296875 46.2265625,21.2539062 C46.2265625,20.1992188 45.3945312,19.3671875 44.3398438,19.3671875 C43.2851562,19.3671875 42.453125,20.1992188 42.453125,21.2539062 C42.453125,22.296875 43.2851562,23.140625 44.3398438,23.140625 Z M55.0742188,23.375 C58.9765625,23.375 61.7304688,21.359375 61.7304688,18.3242188 C61.7304688,15.9804688 60.1015625,14.4570312 57.5820312,14.2460938 L57.5820312,14.1757812 C59.65625,13.8007812 61.0742188,12.3007812 61.0742188,10.2265625 C61.0742188,7.51953125 58.671875,5.71484375 55.15625,5.71484375 C51.4882812,5.71484375 49.0507812,7.75390625 48.921875,10.8828125 L52.1796875,10.8828125 C52.2734375,9.40625 53.3632812,8.43359375 55.0039062,8.43359375 C56.7617188,8.43359375 57.734375,9.3359375 57.734375,10.7070312 C57.734375,12.1015625 56.6445312,13.0625 55.0273438,13.0625 L52.9765625,13.0625 L52.9765625,15.6171875 L55.0625,15.6171875 C56.9726562,15.6171875 58.1328125,16.5546875 58.1328125,18.1015625 C58.1328125,19.53125 56.890625,20.5273438 55.1210938,20.5273438 C53.2578125,20.5273438 52.0859375,19.5898438 51.9804688,18.1601562 L48.59375,18.1601562 C48.7578125,21.2773438 51.2539062,23.375 55.0742188,23.375 Z M70.484375,23.375 C74.3632812,23.375 77.0117188,20.9375 77.0117188,17.3515625 C77.0117188,14.0585938 74.6914062,11.6796875 71.4570312,11.6796875 C69.734375,11.6796875 68.3867188,12.3945312 67.6953125,13.53125 L67.625,13.53125 L68.0117188,8.90234375 L75.9921875,8.90234375 L75.9921875,6.08984375 L65.234375,6.08984375 L64.4023438,15.8164062 L67.5664062,15.8164062 C68.1523438,14.84375 69.2539062,14.2578125 70.53125,14.2578125 C72.359375,14.2578125 73.6367188,15.5703125 73.6367188,17.4453125 C73.6367188,19.2851562 72.359375,20.5742188 70.5078125,20.5742188 C68.8671875,20.5742188 67.6015625,19.5898438 67.4023438,18.1601562 L64.1328125,18.1601562 C64.2382812,21.21875 66.8515625,23.375 70.484375,23.375 Z M82.1679688,14.5390625 C84.5234375,14.5390625 86.0234375,12.828125 86.0234375,10.1445312 C86.0234375,7.47265625 84.546875,5.796875 82.1679688,5.796875 C79.8007812,5.796875 78.3125,7.47265625 78.3125,10.1445312 C78.3125,12.828125 79.8125,14.5390625 82.1679688,14.5390625 Z M82.8242188,23 L95.1640625,6.08984375 L92.3398438,6.08984375 L79.9882812,23 L82.8242188,23 Z M82.1679688,12.4882812 C81.40625,12.4882812 80.9375,11.5859375 80.9375,10.15625 C80.9375,8.71484375 81.40625,7.84765625 82.1679688,7.84765625 C82.953125,7.84765625 83.3984375,8.69140625 83.3984375,10.1445312 C83.3984375,11.5976562 82.9414062,12.4882812 82.1679688,12.4882812 Z M92.9726562,23.2460938 C95.328125,23.2460938 96.828125,21.5351562 96.828125,18.8515625 C96.828125,16.1796875 95.3515625,14.5039062 92.9726562,14.5039062 C90.6054688,14.5039062 89.1171875,16.1796875 89.1171875,18.8515625 C89.1171875,21.5351562 90.6171875,23.2460938 92.9726562,23.2460938 Z M92.9726562,21.1953125 C92.2109375,21.1953125 91.7421875,20.2929688 91.7421875,18.8632812 C91.7421875,17.421875 92.2109375,16.5546875 92.9726562,16.5546875 C93.7578125,16.5546875 94.203125,17.3984375 94.203125,18.8515625 C94.203125,20.3046875 93.7460938,21.1953125 92.9726562,21.1953125 Z" id="5.35%" fill="#22272E"></path>
            <path d="M18.6235352,52 L19.6147461,49.1767578 L23.5385742,49.1767578 L24.5297852,52 L25.8217773,52 L22.1850586,42.1357422 L20.9682617,42.1357422 L17.331543,52 L18.6235352,52 Z M23.1762695,48.1308594 L19.9770508,48.1308594 L21.5561523,43.6328125 L21.597168,43.6328125 L23.1762695,48.1308594 Z M30.0874023,52 L32.8081055,44.6308594 L31.5708008,44.6308594 L29.4995117,50.7148438 L29.472168,50.7148438 L27.4077148,44.6308594 L26.1635742,44.6308594 L28.8842773,52 L30.0874023,52 Z M36.800293,52.0683594 C38.3725586,52.0683594 39.6508789,51.1591797 39.855957,49.8945312 L38.6801758,49.8945312 C38.4682617,50.5849609 37.7504883,51.0224609 36.8276367,51.0224609 C35.5151367,51.0224609 34.6538086,50.1132812 34.6538086,48.7119141 L34.6538086,48.6435547 L39.9448242,48.6435547 L39.9448242,48.1787109 C39.9448242,45.9501953 38.7143555,44.5625 36.7456055,44.5625 C34.7358398,44.5625 33.4233398,46.0595703 33.4233398,48.3427734 C33.4233398,50.6259766 34.7290039,52.0683594 36.800293,52.0683594 Z M38.7075195,47.6933594 L34.6538086,47.6933594 C34.7358398,46.4492188 35.5698242,45.6083984 36.7250977,45.6083984 C37.887207,45.6083984 38.6801758,46.4423828 38.7075195,47.6933594 Z M42.3852539,52 L42.3852539,47.4404297 C42.3852539,46.4013672 43.0141602,45.7041016 43.9711914,45.7041016 C44.2651367,45.7041016 44.5249023,45.7382812 44.6206055,45.7724609 L44.6206055,44.6035156 C44.5180664,44.5830078 44.340332,44.5625 44.128418,44.5625 C43.2670898,44.5625 42.5629883,45.0546875 42.3442383,45.8271484 L42.3168945,45.8271484 L42.3168945,44.6308594 L41.1958008,44.6308594 L41.1958008,52 L42.3852539,52 Z M47.7856445,52.0683594 C48.8178711,52.0683594 49.7407227,51.5419922 50.1577148,50.7216797 L50.1850586,50.7216797 L50.1850586,52 L51.3129883,52 L51.3129883,46.9414062 C51.3129883,45.4921875 50.1918945,44.5625 48.4487305,44.5625 C46.9038086,44.5625 45.6938477,45.5126953 45.659668,46.7568359 L46.8012695,46.7568359 C46.9448242,46.0595703 47.5805664,45.6220703 48.4350586,45.6220703 C49.5219727,45.6220703 50.1235352,46.1279297 50.1235352,47.0439453 L50.1235352,47.6591797 L48.059082,47.7822266 C46.2680664,47.8916016 45.2973633,48.6367188 45.2973633,49.9013672 C45.2973633,51.2070312 46.2885742,52.0683594 47.7856445,52.0683594 Z M48.0385742,51.0361328 C47.1088867,51.0361328 46.5141602,50.5917969 46.5141602,49.9082031 C46.5141602,49.1972656 47.0883789,48.7939453 48.1958008,48.7255859 L50.1235352,48.6025391 L50.1235352,49.1972656 C50.1235352,50.2568359 49.2416992,51.0361328 48.0385742,51.0361328 Z M55.9135742,54.7753906 C57.9370117,54.7753906 59.2290039,53.6064453 59.2290039,51.8496094 L59.2290039,44.6308594 L58.0942383,44.6308594 L58.0942383,45.8271484 L58.0737305,45.8271484 C57.581543,45.0205078 56.7133789,44.5625 55.6743164,44.5625 C53.7807617,44.5625 52.5297852,46.0390625 52.5297852,48.2880859 C52.5297852,50.5166016 53.7807617,52 55.6469727,52 C56.6791992,52 57.5473633,51.5351562 58.012207,50.7353516 L58.0395508,50.7353516 L58.0395508,51.890625 C58.0395508,53.0048828 57.253418,53.75 55.9682617,53.75 C55.0385742,53.75 54.293457,53.2988281 54.0541992,52.6152344 L52.8237305,52.6152344 C53.0288086,53.8662109 54.3139648,54.7753906 55.9135742,54.7753906 Z M55.8725586,50.9404297 C54.5874023,50.9404297 53.746582,49.8945312 53.746582,48.2880859 C53.746582,46.6748047 54.5874023,45.6220703 55.8725586,45.6220703 C57.1645508,45.6220703 58.0395508,46.7021484 58.0395508,48.2880859 C58.0395508,49.8671875 57.1645508,50.9404297 55.8725586,50.9404297 Z M63.8569336,52.0683594 C65.4291992,52.0683594 66.7075195,51.1591797 66.9125977,49.8945312 L65.7368164,49.8945312 C65.5249023,50.5849609 64.8071289,51.0224609 63.8842773,51.0224609 C62.5717773,51.0224609 61.7104492,50.1132812 61.7104492,48.7119141 L61.7104492,48.6435547 L67.0014648,48.6435547 L67.0014648,48.1787109 C67.0014648,45.9501953 65.7709961,44.5625 63.8022461,44.5625 C61.7924805,44.5625 60.4799805,46.0595703 60.4799805,48.3427734 C60.4799805,50.6259766 61.7856445,52.0683594 63.8569336,52.0683594 Z M65.7641602,47.6933594 L61.7104492,47.6933594 C61.7924805,46.4492188 62.6264648,45.6083984 63.7817383,45.6083984 C64.9438477,45.6083984 65.7368164,46.4423828 65.7641602,47.6933594 Z M72.8598633,52 L72.8598633,41.7050781 L71.6704102,41.7050781 L71.6704102,52 L72.8598633,52 Z M75.2045898,43.4414062 C75.621582,43.4414062 75.956543,43.0996094 75.956543,42.6894531 C75.956543,42.2724609 75.621582,41.9375 75.2045898,41.9375 C74.7944336,41.9375 74.4526367,42.2724609 74.4526367,42.6894531 C74.4526367,43.0996094 74.7944336,43.4414062 75.2045898,43.4414062 Z M75.7993164,52 L75.7993164,44.6308594 L74.6098633,44.6308594 L74.6098633,52 L75.7993164,52 Z M81.1040039,52.0683594 C82.9838867,52.0683594 84.2485352,50.5712891 84.2485352,48.3154297 C84.2485352,46.0664062 82.9838867,44.5625 81.1313477,44.5625 C80.0854492,44.5625 79.230957,45.0205078 78.7661133,45.8271484 L78.7387695,45.8271484 L78.7387695,41.7050781 L77.5493164,41.7050781 L77.5493164,52 L78.6772461,52 L78.6772461,50.7558594 L78.7045898,50.7558594 C79.1831055,51.6035156 80.0307617,52.0683594 81.1040039,52.0683594 Z M80.8920898,51.0087891 C79.6069336,51.0087891 78.7319336,49.9150391 78.7319336,48.3154297 C78.7319336,46.7226562 79.6069336,45.6220703 80.8920898,45.6220703 C82.184082,45.6220703 83.0317383,46.6816406 83.0317383,48.3154297 C83.0317383,49.9560547 82.184082,51.0087891 80.8920898,51.0087891 Z M86.6889648,52 L86.6889648,47.4404297 C86.6889648,46.4013672 87.3178711,45.7041016 88.2749023,45.7041016 C88.5688477,45.7041016 88.8286133,45.7382812 88.9243164,45.7724609 L88.9243164,44.6035156 C88.8217773,44.5830078 88.644043,44.5625 88.4321289,44.5625 C87.5708008,44.5625 86.8666992,45.0546875 86.6479492,45.8271484 L86.6206055,45.8271484 L86.6206055,44.6308594 L85.4995117,44.6308594 L85.4995117,52 L86.6889648,52 Z M92.0893555,52.0683594 C93.121582,52.0683594 94.0444336,51.5419922 94.4614258,50.7216797 L94.4887695,50.7216797 L94.4887695,52 L95.6166992,52 L95.6166992,46.9414062 C95.6166992,45.4921875 94.4956055,44.5625 92.7524414,44.5625 C91.2075195,44.5625 89.9975586,45.5126953 89.9633789,46.7568359 L91.1049805,46.7568359 C91.2485352,46.0595703 91.8842773,45.6220703 92.7387695,45.6220703 C93.8256836,45.6220703 94.4272461,46.1279297 94.4272461,47.0439453 L94.4272461,47.6591797 L92.362793,47.7822266 C90.5717773,47.8916016 89.6010742,48.6367188 89.6010742,49.9013672 C89.6010742,51.2070312 90.5922852,52.0683594 92.0893555,52.0683594 Z M92.3422852,51.0361328 C91.4125977,51.0361328 90.8178711,50.5917969 90.8178711,49.9082031 C90.8178711,49.1972656 91.3920898,48.7939453 92.4995117,48.7255859 L94.4272461,48.6025391 L94.4272461,49.1972656 C94.4272461,50.2568359 93.5454102,51.0361328 92.3422852,51.0361328 Z M98.3852539,52 L98.3852539,47.4404297 C98.3852539,46.4013672 99.0141602,45.7041016 99.9711914,45.7041016 C100.265137,45.7041016 100.524902,45.7382812 100.620605,45.7724609 L100.620605,44.6035156 C100.518066,44.5830078 100.340332,44.5625 100.128418,44.5625 C99.2670898,44.5625 98.5629883,45.0546875 98.3442383,45.8271484 L98.3168945,45.8271484 L98.3168945,44.6308594 L97.1958008,44.6308594 L97.1958008,52 L98.3852539,52 Z M102.26123,54.6728516 C103.566895,54.6728516 104.154785,54.1601562 104.783691,52.4511719 L107.668457,44.6308594 L106.41748,44.6308594 L104.353027,50.7900391 L104.325684,50.7900391 L102.26123,44.6308594 L100.996582,44.6308594 L103.724121,52.0068359 L103.580566,52.4443359 C103.279785,53.3330078 102.910645,53.6611328 102.227051,53.6611328 C102.069824,53.6611328 101.878418,53.6474609 101.741699,53.6201172 L101.741699,54.625 C101.885254,54.6523438 102.11084,54.6728516 102.26123,54.6728516 Z M47.3378906,72.0683594 C48.4658203,72.0683594 49.2246094,71.6308594 49.6826172,70.7832031 L49.7099609,70.7832031 L49.7099609,72 L50.8310547,72 L50.8310547,64.6308594 L49.6416016,64.6308594 L49.6416016,68.9101562 C49.6416016,70.1748047 48.9101562,71.0087891 47.7001953,71.0087891 C46.5449219,71.0087891 45.9775391,70.359375 45.9775391,69.1494141 L45.9775391,64.6308594 L44.7880859,64.6308594 L44.7880859,69.3544922 C44.7880859,71.0292969 45.7246094,72.0683594 47.3378906,72.0683594 Z M54.9667969,72.0683594 C56.6689453,72.0683594 57.8789062,71.1796875 57.8789062,69.921875 C57.8789062,68.8486328 57.3457031,68.3291016 55.8554688,67.953125 L54.734375,67.6728516 C53.8867188,67.4609375 53.4902344,67.1259766 53.4902344,66.6269531 C53.4902344,65.984375 54.0986328,65.5537109 55.0078125,65.5537109 C55.9101562,65.5537109 56.5117188,65.984375 56.5869141,66.6748047 L57.7285156,66.6748047 C57.6806641,65.4648438 56.5458984,64.5693359 55.0488281,64.5693359 C53.4492188,64.5693359 52.3212891,65.4443359 52.3212891,66.6884766 C52.3212891,67.6728516 52.9501953,68.3222656 54.2421875,68.6572266 L55.5341797,68.9921875 C56.375,69.2109375 56.6826172,69.484375 56.6826172,70.0039062 C56.6826172,70.6669922 56.0537109,71.0839844 55.0488281,71.0839844 C54.0439453,71.0839844 53.4355469,70.6806641 53.3125,69.9287109 L52.1162109,69.9287109 C52.2324219,71.2070312 53.3808594,72.0683594 54.9667969,72.0683594 Z M61.3242188,72.0683594 C62.3564453,72.0683594 63.2792969,71.5419922 63.6962891,70.7216797 L63.7236328,70.7216797 L63.7236328,72 L64.8515625,72 L64.8515625,66.9414062 C64.8515625,65.4921875 63.7304688,64.5625 61.9873047,64.5625 C60.4423828,64.5625 59.2324219,65.5126953 59.1982422,66.7568359 L60.3398438,66.7568359 C60.4833984,66.0595703 61.1191406,65.6220703 61.9736328,65.6220703 C63.0605469,65.6220703 63.6621094,66.1279297 63.6621094,67.0439453 L63.6621094,67.6591797 L61.5976562,67.7822266 C59.8066406,67.8916016 58.8359375,68.6367188 58.8359375,69.9013672 C58.8359375,71.2070312 59.8271484,72.0683594 61.3242188,72.0683594 Z M61.5771484,71.0361328 C60.6474609,71.0361328 60.0527344,70.5917969 60.0527344,69.9082031 C60.0527344,69.1972656 60.6269531,68.7939453 61.734375,68.7255859 L63.6621094,68.6025391 L63.6621094,69.1972656 C63.6621094,70.2568359 62.7802734,71.0361328 61.5771484,71.0361328 Z M69.4521484,74.7753906 C71.4755859,74.7753906 72.7675781,73.6064453 72.7675781,71.8496094 L72.7675781,64.6308594 L71.6328125,64.6308594 L71.6328125,65.8271484 L71.6123047,65.8271484 C71.1201172,65.0205078 70.2519531,64.5625 69.2128906,64.5625 C67.3193359,64.5625 66.0683594,66.0390625 66.0683594,68.2880859 C66.0683594,70.5166016 67.3193359,72 69.1855469,72 C70.2177734,72 71.0859375,71.5351562 71.5507812,70.7353516 L71.578125,70.7353516 L71.578125,71.890625 C71.578125,73.0048828 70.7919922,73.75 69.5068359,73.75 C68.5771484,73.75 67.8320312,73.2988281 67.5927734,72.6152344 L66.3623047,72.6152344 C66.5673828,73.8662109 67.8525391,74.7753906 69.4521484,74.7753906 Z M69.4111328,70.9404297 C68.1259766,70.9404297 67.2851562,69.8945312 67.2851562,68.2880859 C67.2851562,66.6748047 68.1259766,65.6220703 69.4111328,65.6220703 C70.703125,65.6220703 71.578125,66.7021484 71.578125,68.2880859 C71.578125,69.8671875 70.703125,70.9404297 69.4111328,70.9404297 Z M77.3955078,72.0683594 C78.9677734,72.0683594 80.2460938,71.1591797 80.4511719,69.8945312 L79.2753906,69.8945312 C79.0634766,70.5849609 78.3457031,71.0224609 77.4228516,71.0224609 C76.1103516,71.0224609 75.2490234,70.1132812 75.2490234,68.7119141 L75.2490234,68.6435547 L80.5400391,68.6435547 L80.5400391,68.1787109 C80.5400391,65.9501953 79.3095703,64.5625 77.3408203,64.5625 C75.3310547,64.5625 74.0185547,66.0595703 74.0185547,68.3427734 C74.0185547,70.6259766 75.3242188,72.0683594 77.3955078,72.0683594 Z M79.3027344,67.6933594 L75.2490234,67.6933594 C75.3310547,66.4492188 76.1650391,65.6083984 77.3203125,65.6083984 C78.4824219,65.6083984 79.2753906,66.4423828 79.3027344,67.6933594 Z" id="Averagelibraryusage" fill="#627386"></path>
        </g>
        <g id="Icons/System/Layers" transform="translate(65.000000, 58.000000)" fill="#1F88DE">
            <path d="M30.5035771,24.5739916 C31.3738425,24.1179694 32.3989594,24.1179694 33.2692248,24.5739916 L33.2692248,24.5739916 L35.8118864,25.9000137 C36.9515934,26.4951066 36.9515934,28.196296 35.8118864,28.794623 L35.8118864,28.794623 L21.3859209,36.3270756 C20.5125585,36.7798637 19.4843445,36.7798637 18.6140791,36.3270756 L18.6140791,36.3270756 L4.1881136,28.794623 C3.04840658,28.196296 3.04840658,26.4951066 4.1881136,25.9000137 L4.1881136,25.9000137 L6.72767816,24.5739916 C7.59794357,24.1179694 8.62306048,24.1179694 9.49642293,24.5739916 L9.49642293,24.5739916 L18.6140791,29.3347345 C19.4843445,29.7907568 20.5125585,29.7907568 21.3859209,29.3347345 L21.3859209,29.3347345 Z M21.3859209,3.65059747 L35.8118864,10.6878181 C36.9515934,11.2468072 36.9515934,12.8361495 35.8118864,13.3921171 L21.3859209,20.4293377 C20.5125585,20.8553781 19.4843445,20.8553781 18.6140791,20.4293377 L4.1881136,13.3921171 C3.04840658,12.8361495 3.04840658,11.2468072 4.1881136,10.6878181 L18.6140791,3.65059747 C19.4843445,3.22757862 20.5125585,3.22757862 21.3859209,3.65059747 Z" id="Layers"></path>
        </g>
        <g id="Icons/System/Layers" transform="translate(257.000000, 58.000000)" fill="#1F88DE">
            <path d="M30.5035771,24.5739916 C31.3738425,24.1179694 32.3989594,24.1179694 33.2692248,24.5739916 L33.2692248,24.5739916 L35.8118864,25.9000137 C36.9515934,26.4951066 36.9515934,28.196296 35.8118864,28.794623 L35.8118864,28.794623 L21.3859209,36.3270756 C20.5125585,36.7798637 19.4843445,36.7798637 18.6140791,36.3270756 L18.6140791,36.3270756 L4.1881136,28.794623 C3.04840658,28.196296 3.04840658,26.4951066 4.1881136,25.9000137 L4.1881136,25.9000137 L6.72767816,24.5739916 C7.59794357,24.1179694 8.62306048,24.1179694 9.49642293,24.5739916 L9.49642293,24.5739916 L18.6140791,29.3347345 C19.4843445,29.7907568 20.5125585,29.7907568 21.3859209,29.3347345 L21.3859209,29.3347345 Z M21.3859209,3.65059747 L35.8118864,10.6878181 C36.9515934,11.2468072 36.9515934,12.8361495 35.8118864,13.3921171 L21.3859209,20.4293377 C20.5125585,20.8553781 19.4843445,20.8553781 18.6140791,20.4293377 L4.1881136,13.3921171 C3.04840658,12.8361495 3.04840658,11.2468072 4.1881136,10.6878181 L18.6140791,3.65059747 C19.4843445,3.22757862 20.5125585,3.22757862 21.3859209,3.65059747 Z" id="Layers"></path>
        </g>
        <g id="Icons/System/Layers" transform="translate(433.000000, 58.000000)" fill="#1F88DE">
            <path d="M30.5035771,24.5739916 C31.3738425,24.1179694 32.3989594,24.1179694 33.2692248,24.5739916 L33.2692248,24.5739916 L35.8118864,25.9000137 C36.9515934,26.4951066 36.9515934,28.196296 35.8118864,28.794623 L35.8118864,28.794623 L21.3859209,36.3270756 C20.5125585,36.7798637 19.4843445,36.7798637 18.6140791,36.3270756 L18.6140791,36.3270756 L4.1881136,28.794623 C3.04840658,28.196296 3.04840658,26.4951066 4.1881136,25.9000137 L4.1881136,25.9000137 L6.72767816,24.5739916 C7.59794357,24.1179694 8.62306048,24.1179694 9.49642293,24.5739916 L9.49642293,24.5739916 L18.6140791,29.3347345 C19.4843445,29.7907568 20.5125585,29.7907568 21.3859209,29.3347345 L21.3859209,29.3347345 Z M21.3859209,3.65059747 L35.8118864,10.6878181 C36.9515934,11.2468072 36.9515934,12.8361495 35.8118864,13.3921171 L21.3859209,20.4293377 C20.5125585,20.8553781 19.4843445,20.8553781 18.6140791,20.4293377 L4.1881136,13.3921171 C3.04840658,12.8361495 3.04840658,11.2468072 4.1881136,10.6878181 L18.6140791,3.65059747 C19.4843445,3.22757862 20.5125585,3.22757862 21.3859209,3.65059747 Z" id="Layers"></path>
        </g>
    </g>
</svg>